HIERARCHY
ROOT Hips
{
	OFFSET 0.000000 0.000000 0.000000 
	CHANNELS 6 Xposition Yposition Zposition Zrotation Yrotation Xrotation
	JOINT LeftUpLeg
	{
		OFFSET 1.363060 -1.794630 0.839290 
		CHANNELS 3 Zrotation Yrotation Xrotation
		JOINT LeftLeg
		{
			OFFSET 2.448110 -6.726130 0.000000 
			CHANNELS 3 Zrotation Yrotation Xrotation
			JOINT LeftFoot
			{
				OFFSET 2.562200 -7.039590 0.000000 
				CHANNELS 3 Zrotation Yrotation Xrotation
				JOINT LeftToeBase
				{
					OFFSET 0.157640 -0.433110 2.322550 
					CHANNELS 3 Zrotation Yrotation Xrotation
					End Site
					{
						OFFSET 0.000000 0.000000 0.000000 
					}
				}
			}
		}
	}
	JOINT RightUpLeg
	{
		OFFSET -1.305520 -1.794630 0.839290 
		CHANNELS 3 Zrotation Yrotation Xrotation
		JOINT RightLeg
		{
			OFFSET -2.542530 -6.985550 0.000000 
			CHANNELS 3 Zrotation Yrotation Xrotation
			JOINT RightFoot
			{
				OFFSET -2.568260 -7.056230 0.000000 
				CHANNELS 3 Zrotation Yrotation Xrotation
				JOINT RightToeBase
				{
					OFFSET -0.164730 -0.452590 2.363150 
					CHANNELS 3 Zrotation Yrotation Xrotation
					End Site
					{
						OFFSET 0.000000 0.000000 0.000000 
					}
				}
			}
		}
	}
	JOINT Spine
	{
		OFFSET 0.028270 2.035590 -0.193380 
		CHANNELS 3 Zrotation Yrotation Xrotation
		JOINT Spine1
		{
			OFFSET 0.056720 2.048850 -0.042750 
			CHANNELS 3 Zrotation Yrotation Xrotation
			JOINT Neck1
			{
				OFFSET -0.054170 1.746240 0.172020 
				CHANNELS 3 Zrotation Yrotation Xrotation
				JOINT Head
				{
					OFFSET 0.104070 1.761360 -0.123970 
					CHANNELS 3 Zrotation Yrotation Xrotation
					End Site
					{
						OFFSET 0.000000 0.000000 0.000000 
					}
				}
			}
			JOINT LeftArm
			{
				OFFSET 3.362410 1.200890 -0.311210 
				CHANNELS 3 Zrotation Yrotation Xrotation
				JOINT LeftForeArm
				{
					OFFSET 4.983000 -0.000000 -0.000000 
					CHANNELS 3 Zrotation Yrotation Xrotation
					JOINT LeftHand
					{
						OFFSET 3.483560 -0.000000 -0.000000 
						CHANNELS 3 Zrotation Yrotation Xrotation
						JOINT LeftHandIndex1
						{
							OFFSET 0.715260 -0.000000 -0.000000 
							CHANNELS 3 Zrotation Yrotation Xrotation
							End Site
							{
								OFFSET 0.000000 0.000000 0.000000 
							}
						}
					}
				}
			}
			JOINT RightArm
			{
				OFFSET -3.136600 1.374050 -0.404650 
				CHANNELS 3 Zrotation Yrotation Xrotation
				JOINT RightForeArm
				{
					OFFSET -5.241900 -0.000000 -0.000000 
					CHANNELS 3 Zrotation Yrotation Xrotation
					JOINT RightHand
					{
						OFFSET -3.444170 -0.000000 -0.000000 
						CHANNELS 3 Zrotation Yrotation Xrotation
						JOINT RightHandIndex1
						{
							OFFSET -0.622530 -0.000000 -0.000000 
							CHANNELS 3 Zrotation Yrotation Xrotation
							End Site
							{
								OFFSET 0.000000 0.000000 0.000000 
							}
						}
					}
				}
			}
		}
	}
}
MOTION
Frames: 9
Frame Time: 0.041667
11.154150 15.876706 19.452263 148.174833 82.367846 169.359748 -22.537715 -20.121613 -38.358956 7.773838 20.384815 57.787796 1.330626 -16.937383 -33.795454 0.130300 -2.326400 -6.408500 22.531853 25.645577 -40.775035 -7.788917 -21.729380 58.936243 -4.248227 -3.729233 -41.854168 -2.672100 10.144300 -29.445400 0.626875 1.838296 -5.574500 0.808299 1.136576 8.217309 30.612396 -3.110277 -13.048520 13.909400 -2.044400 -6.208100 -80.415707 15.602430 24.709613 14.084632 -18.692789 -2.966877 -1.703432 1.519556 -2.874105 -7.125000 0.000000 0.000000 89.551474 4.652534 15.717107 -11.437250 21.057177 -2.983897 1.181798 3.529285 12.299743 7.125000 0.000000 0.000000 
11.090525 15.691069 19.478455 154.339953 81.006338 176.127062 -21.158506 -21.384275 -40.628777 8.690368 21.198749 60.788708 1.846603 -16.441201 -35.665365 0.895300 -6.030600 -16.873100 21.478013 27.044935 -45.040954 -9.790451 -23.261459 65.016045 -4.276352 -5.160306 -42.260056 -2.900000 10.531300 -30.715000 0.517261 2.146442 -5.595886 0.377651 1.293010 8.009946 30.605707 -3.723989 -13.999430 13.873400 -2.392900 -6.433200 -81.481529 13.959050 24.486365 14.024874 -18.483193 -2.921298 -1.704063 1.514848 -2.552911 -7.125000 0.000000 0.000000 90.557421 5.012219 14.820885 -11.010660 20.420483 -2.812019 1.317261 3.480993 13.968534 7.125000 0.000000 0.000000 
11.011839 15.536753 19.512832 156.950994 79.370294 178.814106 -18.924036 -25.502875 -43.201307 9.987481 22.008060 64.727362 -0.585133 -24.450527 -30.486872 2.240900 9.350900 26.899200 20.583113 27.094840 -47.947810 -11.625203 -24.262113 70.201616 -4.134223 -6.829544 -42.055286 -3.637700 11.662000 -34.546600 0.389841 2.322459 -5.519202 0.050978 1.368315 7.776548 30.665528 -4.383534 -14.898694 13.849300 -2.742000 -6.569700 -82.608555 12.069221 24.655882 13.910283 -18.169730 -2.847848 -1.753703 1.480858 -2.611576 -7.125000 0.000000 0.000000 91.588847 5.628328 13.889400 -10.688292 19.908590 -2.683448 1.428961 3.467335 15.714256 7.125000 0.000000 0.000000 
10.936537 15.392805 19.552994 158.007252 77.817011 179.799680 -18.982197 -26.784513 -46.010230 11.368970 23.149905 68.619024 2.941358 -9.895133 -36.918834 6.316200 -14.728000 -46.238100 19.709918 26.346553 -50.365329 -13.088945 -24.887181 74.184941 -3.890941 -7.711264 -41.138060 -4.162000 12.372900 -37.064100 0.341942 2.274523 -5.415691 -0.027231 1.322469 7.682757 30.667587 -4.848313 -15.691629 13.853200 -2.963100 -6.699000 -84.173980 10.272337 24.230054 13.648682 -17.657845 -2.715572 -1.743818 1.548476 -2.167310 -7.125000 0.000000 0.000000 92.065537 6.149354 14.863945 -10.471855 19.566422 -2.598773 1.494899 3.481540 15.938572 7.125000 0.000000 0.000000 
10.875858 15.289783 19.610726 158.426067 76.642731 179.175147 -19.105032 -27.405427 -47.061065 12.419418 23.652805 71.435293 3.229066 -6.198476 -36.344131 9.094900 -16.868400 -56.417800 19.607471 26.124730 -50.684877 -14.162613 -25.151479 77.031212 -3.782934 -7.562875 -40.382847 -4.066100 12.247800 -36.614300 0.262547 2.351902 -5.157056 -0.079087 1.324449 7.590358 30.660739 -5.286503 -16.401939 13.816300 -3.180600 -6.827900 -85.409692 8.542559 24.562246 13.405488 -17.180758 -2.602581 -1.729488 1.612550 -1.977624 -7.125000 0.000000 0.000000 92.441393 6.514267 17.149516 -10.406987 19.446736 -2.561221 1.474114 3.454774 14.830137 7.125000 0.000000 0.000000 
10.810923 15.188834 19.664529 159.620490 75.356348 179.736394 -18.412853 -28.873941 -48.102076 13.211239 23.948802 73.689781 2.841655 -8.583923 -35.642885 8.220300 -16.278900 -53.352500 19.583293 25.029805 -51.420063 -14.795680 -25.292321 78.710164 -3.554914 -7.504070 -39.163646 -4.159200 12.369300 -37.051300 0.138162 2.488205 -4.905176 -0.436409 1.367649 7.760093 30.762549 -5.836169 -17.156856 13.770900 -3.488300 -6.981100 -86.199485 6.734296 25.798223 13.270596 -16.875609 -2.544655 -1.713509 1.642499 -2.136799 -7.125000 0.000000 0.000000 93.115398 6.861727 19.003499 -10.562502 19.662670 -2.604838 1.419210 3.423878 14.076598 7.125000 0.000000 0.000000 
10.759958 15.110258 19.717022 161.847003 74.072065 -178.880830 -17.792019 -29.770082 -48.390877 13.676680 24.071611 75.020107 2.501742 -10.559893 -35.095950 7.437100 -15.689200 -50.508900 20.250264 24.347223 -51.188412 -15.193895 -25.329408 79.768560 -3.447188 -8.080883 -38.882018 -4.573600 12.886900 -38.946700 0.115953 2.598945 -4.631216 -0.592770 1.402917 7.977234 30.786844 -6.279971 -17.942887 13.738200 -3.739800 -7.215100 -87.137193 5.078671 27.196222 13.226818 -16.744106 -2.543917 -1.571976 1.692771 -2.460799 -7.125000 0.000000 0.000000 93.604418 7.126405 20.379570 -10.821560 20.020756 -2.693615 1.390805 3.422751 13.686087 7.125000 0.000000 0.000000 
10.723289 15.041831 19.770061 164.849656 72.876085 -176.421279 -16.839157 -30.062470 -48.688039 13.908103 24.126465 75.700718 2.204603 -12.302310 -34.705134 6.722900 -15.094000 -47.818300 21.238886 24.102829 -50.896701 -15.426509 -25.361238 80.397796 -3.409787 -9.143319 -39.252387 -5.045100 13.434400 -41.017200 0.200515 2.637440 -4.425876 -0.544727 1.406030 8.275369 30.787732 -6.615659 -18.547785 13.743800 -3.918200 -7.410600 -88.353990 3.771834 28.367209 13.279601 -16.690466 -2.530475 -1.874740 1.526636 -2.742107 -7.125000 0.000000 0.000000 93.761191 7.263685 21.751638 -11.050882 20.329175 -2.766412 1.347288 3.426491 13.311414 7.125000 0.000000 0.000000 
10.701026 14.983880 19.821027 167.334937 71.854323 -174.232200 -16.029027 -29.739188 -48.919075 13.968191 24.146825 75.884771 2.156007 -13.026668 -34.873026 6.709700 -15.082500 -47.767600 22.130727 24.035753 -50.652631 -15.527087 -25.375377 80.674357 -3.454884 -9.745743 -39.799970 -5.212300 13.619000 -41.732200 0.261848 2.708271 -4.262023 -0.539985 1.423424 8.684858 30.878479 -6.919397 -18.880200 13.736400 -4.089200 -7.486600 -89.580929 2.574127 28.996360 13.268892 -16.646702 -2.547205 -1.685259 1.679717 -2.428598 -7.125000 0.000000 0.000000 94.024470 7.467504 22.962960 -11.194262 20.514871 -2.807211 1.319758 3.430260 13.059371 7.125000 0.000000 0.000000 
